<svg width="32" height="32" viewBox="0 0 32 32" fill="none" xmlns="http://www.w3.org/2000/svg">
<path fill-rule="evenodd" clip-rule="evenodd" d="M30.7859 22.1246C31.5682 20.2381 32 18.1695 32 16C32 13.8305 31.5682 11.7619 30.7859 9.87539L28.9385 10.6415C29.6218 12.2894 30 14.098 30 16C30 17.902 29.6218 19.7106 28.9385 21.3585L30.7859 22.1246ZM22.1246 1.21409C20.2381 0.431778 18.1695 0 16 0C13.8305 0 11.7619 0.431779 9.87539 1.21409L10.6415 3.06154C12.2894 2.37817 14.098 2 16 2C17.902 2 19.7106 2.37817 21.3585 3.06154L22.1246 1.21409ZM0 16C0 13.8305 0.431778 11.7619 1.21409 9.8754L3.06154 10.6415C2.37817 12.2894 2 14.098 2 16C2 17.902 2.37817 19.7106 3.06154 21.3585L1.21409 22.1246C0.431779 20.2381 0 18.1695 0 16ZM9.8754 30.7859C11.7619 31.5682 13.8305 32 16 32C18.1695 32 20.2381 31.5682 22.1246 30.7859L21.3585 28.9385C19.7106 29.6218 17.902 30 16 30C14.098 30 12.2894 29.6218 10.6415 28.9385L9.8754 30.7859ZM13.5 20.3301L21 16L13.5 11.6699V20.3301Z" fill="#5221E6"/>
</svg>
