<svg width="32" height="27" viewBox="0 0 32 27" fill="none" xmlns="http://www.w3.org/2000/svg">
<path d="M29.8276 5.2356H26.8998L26.2272 2.20139C25.9399 0.905253 24.8106 0 23.4808 0H13.3164C11.9867 0 10.8573 0.90519 10.57 2.20133L9.89738 5.2356H9.20263V3.94096C9.20263 3.2114 8.608 2.6178 7.87712 2.6178H3.59138C2.8605 2.6178 2.26588 3.2114 2.26588 3.94096V5.2356H2.17231C0.9745 5.2356 0 6.20843 0 7.40424V22.0919C0 23.2877 0.9745 24.2605 2.17237 24.2605H12.2471C14.0205 25.4073 16.1329 26.0741 18.3986 26.0741C20.6643 26.0741 22.7767 25.4073 24.55 24.2605H29.8276C31.0255 24.2605 32 23.2877 32 22.0919V7.40424C32 6.20843 31.0255 5.2356 29.8276 5.2356ZM11.7904 2.47093C11.9501 1.7508 12.5776 1.24779 13.3164 1.24779H23.4807C24.2196 1.24779 24.8471 1.75073 25.0067 2.47093L25.6196 5.2356H24.55C22.7766 4.08883 20.6643 3.42204 18.3986 3.42204C16.1329 3.42204 14.0205 4.08883 12.2471 5.2356H11.1775L11.7904 2.47093ZM3.51588 3.94096C3.51588 3.89941 3.54975 3.86565 3.59138 3.86565H7.87706C7.91869 3.86565 7.95256 3.89947 7.95256 3.94096V5.2356H3.51588V3.94096ZM5.01906 23.0126V16.2357C5.01906 15.8911 4.73925 15.6118 4.39406 15.6118C4.04887 15.6118 3.76906 15.8911 3.76906 16.2357V23.0127H2.17237C1.66381 23.0127 1.25 22.5996 1.25 22.0919V7.40424C1.25 6.89649 1.66381 6.48345 2.17237 6.48345H10.6496C8.43769 8.55152 7.053 11.4912 7.053 14.748C7.053 18.0049 8.43769 20.9445 10.6496 23.0126H5.01906ZM24.1692 23.0127C23.4242 23.5326 22.606 23.9547 21.7333 24.2605C20.6888 24.6265 19.5667 24.8262 18.3986 24.8262C17.2304 24.8262 16.1082 24.6264 15.0638 24.2605C14.1911 23.9547 13.373 23.5326 12.6279 23.0127C10.0154 21.1892 8.303 18.1648 8.303 14.7481C8.303 11.3314 10.0154 8.30694 12.6279 6.48352C13.3729 5.96354 14.1911 5.54145 15.0638 5.23567C16.1083 4.86967 17.2304 4.66995 18.3986 4.66995C19.5667 4.66995 20.6889 4.86973 21.7333 5.23567C22.606 5.54145 23.4241 5.96354 24.1692 6.48352C26.7817 8.30694 28.4941 11.3314 28.4941 14.7481C28.4941 18.1648 26.7817 21.1892 24.1692 23.0127ZM30.75 22.0918C30.75 22.5996 30.3363 23.0126 29.8276 23.0126H26.1475C28.3594 20.9445 29.7441 18.0049 29.7441 14.748C29.7441 11.4912 28.3594 8.55152 26.1475 6.48345H29.8276C30.3363 6.48345 30.75 6.89649 30.75 7.40424V22.0918Z" fill="#5221E6"/>
<path d="M18.3704 7.11111C14.1225 7.11111 10.6667 10.567 10.6667 14.8148C10.6667 19.0627 14.1225 22.5185 18.3704 22.5185C18.9893 22.5185 19.6054 22.4448 20.2014 22.2995C20.5163 22.2227 20.7092 21.9052 20.6324 21.5904C20.5557 21.2756 20.2382 21.0825 19.9234 21.1594C19.4182 21.2826 18.8957 21.345 18.3704 21.345C14.7696 21.345 11.8402 18.4156 11.8402 14.8149C11.8402 11.2142 14.7696 8.28471 18.3704 8.28471C21.9711 8.28471 24.9005 11.2141 24.9005 14.8149C24.9005 16.1273 24.513 17.3927 23.7797 18.4742C23.5979 18.7425 23.6679 19.1074 23.9362 19.2892C24.2042 19.471 24.5692 19.4011 24.7511 19.1328C25.6166 17.8561 26.0741 16.363 26.0741 14.815C26.0741 10.567 22.6182 7.11111 18.3704 7.11111Z" fill="#5221E6"/>
<path d="M4.74074 8.2963C3.43368 8.2963 2.37037 9.35967 2.37037 10.6667C2.37037 11.9737 3.43374 13.037 4.74074 13.037C6.04774 13.037 7.11111 11.9737 7.11111 10.6667C7.11111 9.35967 6.04774 8.2963 4.74074 8.2963ZM4.74074 11.7639C4.13578 11.7639 3.64357 11.2717 3.64357 10.6667C3.64357 10.0618 4.13578 9.56956 4.74074 9.56956C5.3457 9.56956 5.83792 10.0618 5.83792 10.6667C5.83792 11.2717 5.34576 11.7639 4.74074 11.7639Z" fill="#5221E6"/>
<path d="M23.6924 20.6248C23.6847 20.5874 23.6734 20.5501 23.6586 20.514C23.6438 20.4784 23.6254 20.4441 23.6041 20.4121C23.5828 20.3795 23.5579 20.3493 23.5306 20.322C23.5033 20.2948 23.4726 20.2699 23.4405 20.248C23.4079 20.2266 23.3736 20.2083 23.338 20.1935C23.3024 20.1787 23.2652 20.1674 23.2272 20.1597C23.1508 20.1443 23.072 20.1443 22.9955 20.1597C22.9575 20.1674 22.9202 20.1787 22.8847 20.1935C22.8491 20.2083 22.8148 20.2266 22.7822 20.248C22.7502 20.2699 22.7199 20.2948 22.6921 20.322C22.6648 20.3493 22.6399 20.3795 22.6186 20.4121C22.5973 20.4441 22.5789 20.4784 22.5641 20.514C22.5493 20.5501 22.538 20.5874 22.5303 20.6248C22.5226 20.6633 22.5185 20.7024 22.5185 20.7409C22.5185 20.7794 22.5226 20.8185 22.5303 20.8564C22.538 20.8943 22.5493 20.9317 22.5641 20.9672C22.5789 21.0033 22.5973 21.0377 22.6186 21.0697C22.6399 21.1023 22.6648 21.1325 22.6921 21.1597C22.7199 21.187 22.7501 21.2119 22.7822 21.2332C22.8148 21.2545 22.8491 21.2729 22.8847 21.2877C22.9203 21.3025 22.9575 21.3138 22.9955 21.3215C23.034 21.3292 23.0726 21.3333 23.1111 21.3333C23.1501 21.3333 23.1887 21.3292 23.2272 21.3215C23.2652 21.3138 23.3025 21.3025 23.338 21.2877C23.3736 21.2729 23.408 21.2545 23.4405 21.2332C23.4725 21.2119 23.5033 21.187 23.5306 21.1597C23.6408 21.0496 23.7037 20.8967 23.7037 20.7409C23.7037 20.7024 23.7001 20.6633 23.6924 20.6248Z" fill="#5221E6"/>
</svg>
